<svg width="750" height="600" viewBox="0 0 500 500" fill="none" xmlns="http://www.w3.org/2000/svg">
<g clip-path="url(#clip0_3_35)">
<path d="M500 0H0V500H500V0Z" fill="white"/>
<path opacity="0.61" d="M384.53 58.93V58.94L89.63 353.83H83.69C58.58 353.83 38.11 335.98 33.32 312.99C33.02 311.56 32.78 310.11 32.61 308.64C32.43 307.18 32.32 305.69 32.27 304.2L274.25 62.22C310.31 44.81 328.1 21.16 363.36 40.32C372.99 45.55 379.71 51.9 384.53 58.93Z" fill="url(#paint0_linear_3_35)"/>
<path opacity="0.61" d="M438.5 161.2L245.87 353.83H172.43L402.02 124.24C405.97 139.29 413.55 152.1 433.08 159.02C435.04 159.71 436.84 160.44 438.5 161.2Z" fill="url(#paint1_linear_3_35)"/>
<path d="M437.736 421.269H65.46C64.091 421.269 62.971 422.389 62.971 423.757C62.971 425.126 64.091 426.245 65.46 426.245H437.736C439.105 426.245 440.224 425.125 440.224 423.757C440.224 422.389 439.105 421.269 437.736 421.269Z" fill="#BDE9FF"/>
<path d="M417.36 362.789H78.67C53.56 362.789 33.09 344.939 28.3 321.949C28 320.519 27.76 319.069 27.59 317.599C27.41 316.139 27.3 314.649 27.25 313.159C27.17 310.589 27.29 307.989 27.62 305.349C27.7 304.679 27.79 304.009 27.9 303.339C28.14 301.849 28.39 300.349 28.66 298.849C32.53 276.589 38.58 253.449 47.93 235.459C50.95 229.659 54.3 224.389 58.04 219.869C66.48 209.649 76.86 203.199 89.62 202.839C167.72 200.629 68 74.429 179.19 85.459C220.41 89.549 247.99 81.449 269.23 71.179C305.29 53.769 323.08 30.119 358.34 49.279C367.97 54.509 374.69 60.859 379.51 67.889V67.899C392.96 87.539 391.55 112.489 397 133.199C400.95 148.249 408.53 161.059 428.06 167.979C430.02 168.669 431.82 169.399 433.48 170.159C479.16 191.039 413.16 235.559 465.42 293.129C489.6 319.779 471.66 362.789 417.36 362.789Z" fill="#BDE9FF"/>
<path d="M236.35 161.539L245.771 144.131H239.773L240.156 142.183L240.922 138.287H224.343V133.526L229.31 126.091L224.343 123.678H215.948V99.094H212.872V123.678H204.431L199.464 126.091L204.431 133.526V138.287H187.311L188.077 142.183L188.46 144.131H182.354L191.94 161.843H191.943L192.567 165.018H192.568L193.221 168.342H208.532V175.371V296.073H219.701V175.371V168.342H235.012L235.666 165.018L236.35 161.539Z" fill="#89D8F7"/>
<path d="M431.179 205.224H256.986V295.849H431.179V205.224Z" fill="#89D8F7"/>
<path d="M430.893 205.224H256.986V295.85H340.267L430.893 205.224Z" fill="#D7F4FF"/>
<path d="M300.663 229.712H263.829V250.349H300.663V229.712Z" fill="#3DBBE2"/>
<path d="M340.972 229.712H304.138V250.349H340.972V229.712Z" fill="#3DBBE2"/>
<path d="M383.237 229.712H346.403V250.349H383.237V229.712Z" fill="#3DBBE2"/>
<path d="M423.546 229.712H386.712V250.349H423.546V229.712Z" fill="#3DBBE2"/>
<path d="M34.196 295.849C39.265 287.085 48.739 281.183 59.599 281.183C67.514 281.183 74.69 284.314 79.976 289.399C86.789 281.321 96.971 276.199 108.368 276.199C112.125 276.199 115.757 276.763 119.176 277.802C126.139 264.464 140.091 255.371 156.172 255.371C166.795 255.371 176.471 259.354 183.834 265.889C190.231 262.332 197.591 260.299 205.43 260.299C220.251 260.299 233.371 267.549 241.461 278.689C245.84 277.248 250.515 276.458 255.376 276.458C270.637 276.458 284.1 284.142 292.119 295.849H34.196Z" fill="#3DBBE2"/>
<path d="M29.189 295.85C28.731 298.358 28.3 300.858 27.897 303.342C22.833 334.532 47.074 362.79 78.672 362.79H417.359C469.848 362.79 488.359 322.599 467.692 295.85H29.189Z" fill="#D7F4FF"/>
<path d="M46.628 351.592C55.372 358.563 66.468 362.79 78.672 362.79H417.359C434.675 362.79 448.291 358.414 458.024 351.592H46.628Z" fill="#BDE9FF"/>
<path d="M475.63 324.148C475.74 323.338 475.82 322.528 475.88 321.708C475.83 322.529 475.75 323.339 475.63 324.148Z" fill="#D7F4FF"/>
<path d="M100.143 98.745C106.435 102.684 110.427 109.43 111.333 116.797C114.246 140.491 119.164 213.905 63.521 187.096C4.007 158.421 65.492 77.053 100.143 98.745Z" fill="#BDE9FF"/>
<path d="M160.749 68.181C160.749 68.181 222.744 92.589 258.379 61.347C294.015 30.105 140.247 59.638 160.749 68.181Z" fill="#BDE9FF"/>
<path d="M404.193 116.016C404.193 116.016 399.327 163.352 444.009 158.486C488.691 153.62 404.636 89.472 404.193 116.016Z" fill="#BDE9FF"/>
<path d="M377.23 109.257C376.075 106.294 366.846 107.127 363.544 108.415C363.544 108.415 358.526 110.399 351.8 113.061L325.638 95.661L320.376 98.899L337.559 118.7C327.137 122.829 317.515 126.649 317.369 126.735L310.443 121.095L305.758 122.662L312.897 136.245L312.926 136.204C314.538 138.075 317.413 138.766 320.084 137.724L373.344 116.953C376.645 115.665 378.385 112.219 377.23 109.257Z" fill="#3DBBE2"/>
<path d="M465.416 293.131C455.771 282.504 450.169 272.324 447.136 262.653C444.384 266.764 442.373 271.413 441.34 276.426C436.952 276.707 432.785 277.804 428.992 279.572C423.949 271.748 415.164 266.569 405.163 266.569C394.244 266.569 384.77 272.743 380.042 281.8C377.72 281.094 375.254 280.711 372.703 280.711C364.964 280.711 358.05 284.189 353.424 289.674C349.835 286.221 344.962 284.095 339.588 284.095C331.492 284.095 324.519 288.917 321.406 295.848H467.69C466.978 294.926 466.222 294.019 465.416 293.131Z" fill="#3DBBE2"/>
<path d="M155.83 317.599H27.59C27.11 313.619 27.1 309.519 27.62 305.349C27.7 304.679 27.79 304.009 27.9 303.339C31.73 279.739 37.95 254.659 47.93 235.459C50.95 229.659 54.3 224.389 58.04 219.869H125.67C133.65 219.869 141.57 221.089 149.18 223.499C174.81 231.579 214.05 246.929 223.54 267.359C223.9 268.089 224.19 268.819 224.44 269.559C224.72 270.339 224.96 271.119 225.14 271.909C225.19 272.089 225.22 272.259 225.26 272.429C225.32 272.719 225.38 273.009 225.43 273.309C231.05 307.759 155.83 317.599 155.83 317.599Z" fill="#D7F4FF"/>
<path d="M155.83 317.599H27.59C27.11 313.619 27.1 309.519 27.62 305.349C27.7 304.679 27.79 304.009 27.9 303.339C28.14 301.849 28.39 300.349 28.66 298.849H155.83C155.83 298.849 211.79 291.499 223.54 267.359C223.88 268.089 224.18 268.819 224.44 269.559C224.72 270.339 224.96 271.119 225.14 271.909C225.19 272.089 225.22 272.259 225.26 272.429C225.32 272.719 225.38 273.009 225.43 273.309C231.05 307.759 155.83 317.599 155.83 317.599Z" fill="#BDE9FF"/>
<path d="M147.153 240.711L190.604 239.866C199.712 244.477 208.088 249.718 214.378 255.511C186.784 254.14 174.534 266.814 174.534 266.814L147.153 257.857V240.711Z" fill="#3DBBE2"/>
<path d="M63.13 242.692L54.025 242.662C51.817 242.655 50.02 244.439 50.013 246.648L49.977 257.726C49.97 259.934 51.754 261.731 53.963 261.738L63.068 261.768C65.277 261.775 67.073 259.991 67.08 257.782L67.116 246.704C67.123 244.496 65.338 242.699 63.13 242.692Z" fill="#3DBBE2"/>
<path d="M94.345 242.999L85.24 242.969C83.032 242.962 81.235 244.746 81.228 246.955L81.192 258.033C81.185 260.241 82.969 262.038 85.178 262.045L94.283 262.075C96.492 262.082 98.288 260.298 98.295 258.089L98.331 247.011C98.338 244.803 96.553 243.007 94.345 242.999Z" fill="#3DBBE2"/>
<path d="M122.007 317.568H113.009V327.797H122.007V317.568Z" fill="#3DBBE2"/>
<path d="M117.602 346.725C124.021 346.725 129.225 341.521 129.225 335.102C129.225 328.683 124.021 323.479 117.602 323.479C111.183 323.479 105.979 328.683 105.979 335.102C105.979 341.521 111.183 346.725 117.602 346.725Z" fill="#3DBBE2"/>
<path d="M122.993 335.102C122.993 332.125 120.579 329.711 117.602 329.711C114.625 329.711 112.211 332.125 112.211 335.102C112.211 338.08 114.625 340.493 117.602 340.493C120.58 340.493 122.993 338.08 122.993 335.102Z" fill="#D7F4FF"/>
<path fill-rule="evenodd" clip-rule="evenodd" d="M164.569 139.985C161.17 137.068 156.727 135.297 151.86 135.297C149.619 135.297 147.469 135.676 145.468 136.365C144.253 127.013 136.131 119.781 126.285 119.781C118.409 119.781 111.638 124.409 108.619 131.047C106.415 130.188 104.014 129.712 101.499 129.712C99.224 129.712 97.042 130.101 95.015 130.81C91.569 125.576 85.581 122.109 78.766 122.109C68.47 122.109 60.057 130.014 59.458 139.985H164.569Z" fill="white"/>
<path fill-rule="evenodd" clip-rule="evenodd" d="M309.625 106.4C306.926 104.084 303.398 102.678 299.534 102.678C297.755 102.678 296.048 102.979 294.458 103.526C293.493 96.1 287.044 90.358 279.226 90.358C272.972 90.358 267.595 94.033 265.199 99.303C263.449 98.621 261.543 98.243 259.545 98.243C257.739 98.243 256.006 98.552 254.396 99.115C251.66 94.959 246.905 92.206 241.493 92.206C233.318 92.206 226.637 98.483 226.162 106.401L309.625 106.4Z" fill="white"/>
<path fill-rule="evenodd" clip-rule="evenodd" d="M474.601 188.126C470.766 184.357 465.754 182.069 460.262 182.069C457.734 182.069 455.308 182.559 453.05 183.448C451.68 171.364 442.516 162.021 431.407 162.021C422.521 162.021 414.881 168.001 411.476 176.577C408.989 175.468 406.28 174.852 403.442 174.852C400.875 174.852 398.413 175.355 396.126 176.271C392.238 169.508 385.482 165.029 377.793 165.029C366.177 165.029 356.684 175.243 356.008 188.127L474.601 188.126Z" fill="white"/>
<path d="M163.733 215.037C163.733 215.037 167.616 221.794 177.975 220.36C188.333 218.926 202.113 216.038 202.113 216.038L219.198 240.695L225.769 236.894C225.769 236.894 212.731 202.827 209.271 201.038C206.871 199.797 187.488 202.518 187.488 202.518L162.649 215.509" fill="#143C75"/>
<path d="M222.328 246.398L219.584 240.47L225.684 236.937C228.006 236.955 235.2 237.08 236.621 237.845C238.328 238.767 222.328 246.398 222.328 246.398Z" fill="#143C75"/>
<path d="M208.208 292.585C207.594 294.564 192.569 343.415 191.06 346.713C189.524 350.074 116.052 383.151 116.052 383.151L108.481 373.448C116.938 361.179 169.141 335.276 169.141 335.276C169.141 335.276 172.746 321.715 167.253 304.015C165.789 299.317 165.925 294.528 166.91 290.038L208.208 292.585Z" fill="#143C75"/>
<path d="M231.283 409.831L217.884 409.144C211.975 395.664 205.28 342.43 205.28 342.43C205.28 342.43 197.591 332.97 181.048 323.375C167.541 315.551 164.903 296.587 164.388 289.874L208.334 292.593C213.674 305.468 224.253 331.045 225.139 333.747C226.314 337.38 231.283 409.831 231.283 409.831Z" fill="#31599B"/>
<path d="M177.764 218.826C168.98 231.118 174.616 239.267 170.838 260.28C169.09 270 161.762 278.172 162.714 289.78L209.032 292.638C209.032 292.638 209.63 250.824 201.336 219.957C201.026 218.806 199.701 217.501 198.583 217.089L186.364 212.626C183.672 211.633 179.432 216.492 177.764 218.826Z" fill="#65BCFC"/>
<path d="M183.756 270.164C183.756 270.164 176.311 269.023 175.091 260.492C174.265 254.715 173.698 253.18 173.698 253.18C173.698 253.18 174.918 262.239 171.258 269.196C168.81 273.871 170.274 284.087 171.502 290.32L162.711 289.777C161.759 278.168 169.094 269.999 170.841 260.28C172.628 250.34 172.305 243.28 172.399 237.291C173.422 242.54 175.083 248.042 175.083 248.042L180.702 253.622L182.748 251.757L183.756 270.164Z" fill="#33A2E5"/>
<path d="M221.967 164.37L215.299 168.219L213.953 168.996C213.131 169.475 212.074 169.186 211.595 168.364L201.358 150.628C200.879 149.797 201.159 148.74 201.99 148.27L203.327 147.493L210.004 143.635C210.826 143.165 211.883 143.445 212.362 144.267L222.598 162.012C223.078 162.834 222.798 163.891 221.967 164.37Z" fill="#31599B"/>
<path d="M221.967 164.37L215.299 168.219L203.328 147.493L210.005 143.635C210.827 143.165 211.884 143.445 212.363 144.267L222.599 162.012C223.078 162.834 222.798 163.891 221.967 164.37Z" fill="white"/>
<path d="M177.327 189.413C177.327 189.413 191.709 186.191 194.295 182.839C196.881 179.487 207.776 161.114 207.776 161.114C207.776 161.114 212.304 156.066 210.831 156.027C209.358 155.988 206.144 157.402 204.839 159.304C203.534 161.206 193.181 174.765 193.181 174.765L176.966 178.35L177.327 189.413Z" fill="#FFA683"/>
<path d="M187.454 187.876C187.454 187.876 169.914 191.853 169.153 182.459C168.519 174.629 186.59 174.306 186.59 174.306L187.454 187.876Z" fill="#04A39F"/>
<path d="M212.481 188.115V188.052C211.993 189.145 208.108 189.507 205.38 189.633C203.844 189.696 200.836 190.88 200.781 192.407L200.076 200.177L197.555 199.273C197.582 199.101 197.618 198.93 197.627 198.749C197.69 196.761 196.227 195.099 194.347 195.036C192.477 194.973 190.905 196.536 190.832 198.523C190.796 199.661 191.266 200.673 192.025 201.36C189.251 202.471 186.45 203.158 186.45 203.158V203.167C186.441 203.167 186.441 203.158 186.441 203.158C178.002 190.97 187.796 168.473 210.004 175.836C221.832 179.758 217.062 185.73 212.481 188.115Z" fill="#31599B"/>
<path d="M210.006 175.837C187.798 168.474 178.005 190.97 186.443 203.159C186.443 203.159 186.443 203.168 186.452 203.168V203.159C183.35 191.692 183.998 183.794 196.349 178.453C207.441 173.657 217.333 182.25 217.333 182.25L217.425 182.13C217.45 179.968 215.556 177.677 210.006 175.837Z" fill="#143C75"/>
<path d="M212.482 188.055C211.995 189.144 208.111 189.507 205.379 189.629C203.84 189.696 200.835 190.876 200.783 192.411L200.072 200.173L197.556 199.274C197.586 199.102 197.617 198.93 197.624 198.749C197.691 196.761 196.226 195.098 194.351 195.035C192.477 194.972 190.904 196.533 190.837 198.521C190.799 199.657 191.271 200.675 192.024 201.361C189.256 202.473 186.447 203.16 186.447 203.16L186.166 212.383L198.324 217.045L198.501 211.507C199.659 211.935 200.851 212.16 202.04 212.219C211.227 212.671 212.789 205.157 213.076 196.603L212.482 188.055Z" fill="#FFA683"/>
<path d="M182.178 172.71C181.22 172.728 179.549 172.412 178.591 172.123L178.41 177.029L169.023 175.909L169.068 171.708C169.077 171.717 169.077 171.726 169.077 171.726C171.281 172.44 175.582 168.437 175.582 168.437C175.582 168.437 173.341 164.868 174.85 162.167C176.043 160.017 177.895 162.303 177.895 162.303C182.476 164.119 187.346 161.942 189.686 159.087L190.038 161.517C190.382 168.862 189.587 172.512 182.178 172.71Z" fill="#FFA683"/>
<path d="M172.306 164.572C172.225 162.865 173.383 161.428 174.892 161.364C176.401 161.299 177.69 162.63 177.771 164.338C177.852 166.045 176.694 167.482 175.185 167.547C173.676 167.611 172.387 166.279 172.306 164.572Z" fill="#FFA683"/>
<path d="M177.892 162.306C177.892 162.306 176.046 160.019 174.847 162.166C173.34 164.865 175.581 168.438 175.581 168.438C175.581 168.438 171.286 172.435 169.08 171.722C169.08 171.722 162.727 158.671 167.771 154.171C172.815 149.671 171.844 148.469 177.214 148.101C182.584 147.733 182.905 147.504 186.083 148.775C189.376 150.092 192.071 156.088 189.767 158.987C187.462 161.884 182.528 164.14 177.892 162.306Z" fill="#31599B"/>
<path d="M186.081 148.774C182.904 147.503 182.582 147.732 177.212 148.1C171.842 148.468 172.813 149.67 167.769 154.17C163.635 157.859 167.156 167.287 168.561 170.57C167.302 166.356 169.695 157.476 170.917 156.119C172.266 154.62 172.866 153.496 174.814 150.873C176.763 148.25 181.559 149.074 185.831 150.573C190.103 152.072 189.728 158.667 189.728 158.667L189.913 158.757C191.922 155.786 189.293 150.058 186.081 148.774Z" fill="#143C75"/>
<path d="M109.884 371.744L99.377 378.301C99.377 378.301 114.13 401.942 116.595 403.942C119.06 405.943 121.59 400.604 116.89 394.136C112.19 387.668 115.735 381.475 115.735 381.475L109.884 371.744Z" fill="#143C75"/>
<path d="M218.682 408.89L218.679 421.275C218.679 421.275 246.545 421.281 249.548 420.249C252.551 419.218 249.362 414.244 241.386 414.805C233.411 415.366 230.034 409.079 230.034 409.079L218.682 408.89Z" fill="#143C75"/>
<path d="M166.338 217.18C166.338 217.18 168.436 224.686 178.829 225.849C189.222 227.012 203.288 227.609 203.288 227.609L213.769 255.717L221.074 253.653C221.074 253.653 216.834 217.423 213.923 214.837C211.903 213.043 192.448 210.902 192.448 210.902L165.174 217.37" fill="#31599B"/>
<path d="M215.395 262.017L214.197 255.596L220.979 253.676C223.225 254.266 230.166 256.16 231.355 257.252C232.782 258.564 215.395 262.017 215.395 262.017Z" fill="#31599B"/>
<path d="M211.583 231.618C211.583 231.618 216.976 224.543 217.667 226.4C218.358 228.257 218.622 232.79 215.96 235.665L211.583 231.618Z" fill="#FFA683"/>
<path d="M211.648 231.596L191.85 252.856C191.85 252.856 192.743 248.248 193.139 242.306C189.253 244.463 182.561 247.516 175.082 248.042C175.98 254.441 177.764 261.328 181.043 267.786C181.607 268.905 182.514 270.314 183.756 270.164C193.41 269.028 215.957 235.6 215.957 235.6L211.648 231.596Z" fill="#FFA683"/>
<path d="M169.289 175.324C169.289 175.324 162.193 180.01 163.873 193.549C165.223 204.426 164.728 220.925 164.728 220.925C164.728 220.925 181.342 219.882 192.445 210.902C192.445 210.902 184.362 194.27 183.309 188.002C182.258 181.733 180.605 173.434 169.289 175.324Z" fill="#06CCCC"/>
<path d="M169.207 196.23C169.207 196.23 171.983 210.404 175.344 212.742C178.705 215.08 197.376 224.98 197.376 224.98C197.376 224.98 202.702 229.728 202.669 228.304C202.636 226.88 200.883 223.227 198.983 222.058C197.083 220.889 183.527 208.943 183.527 208.943L179.874 195.353L169.207 196.23Z" fill="#FFA683"/>
<path d="M167.714 198.801C167.714 198.801 161.649 179.889 171.909 178.147C180.461 176.695 182.559 196.542 182.559 196.542L167.714 198.801Z" fill="#04A39F"/>
<path opacity="0.34" d="M208.539 341.23C205.841 336.733 199.846 329.539 183.658 319.346C167.47 309.154 171.502 290.32 171.502 290.32L164.392 289.94C164.921 296.719 167.592 315.574 181.046 323.374C197.594 332.968 205.277 342.433 205.277 342.433C205.277 342.433 211.46 391.549 217.186 407.369L218.682 408.889C218.682 408.889 211.237 345.726 208.539 341.23Z" fill="#143C75"/>
<path d="M198.019 240.831C196.519 242.43 194.423 243.731 194.423 243.731L191.929 252.784L193.212 242.231C193.212 242.231 195.624 240.135 195.923 239.629C196.14 239.268 195.811 231.458 195.621 227.203C195.82 227.212 196.059 227.241 196.249 227.25C197.315 231.605 199.112 239.665 198.019 240.831Z" fill="#33A2E5"/>
<path d="M380.123 260.812L373.455 264.661L372.109 265.438C371.287 265.917 370.23 265.628 369.751 264.806L359.515 247.07C359.036 246.239 359.316 245.182 360.147 244.712L361.484 243.935L368.161 240.077C368.983 239.607 370.04 239.887 370.519 240.709L380.755 258.454C381.235 259.276 380.955 260.333 380.123 260.812Z" fill="#31599B"/>
<path d="M380.123 260.812L373.455 264.661L361.484 243.935L368.161 240.077C368.983 239.607 370.04 239.887 370.519 240.709L380.755 258.454C381.235 259.276 380.955 260.333 380.123 260.812Z" fill="white"/>
<path d="M297.4 325.761C297.4 325.761 278.933 353.896 272.689 360.681C266.446 367.457 214.053 400.462 214.053 400.462L210.683 391.292C214.342 383.748 254.665 350.454 254.665 350.454C254.665 350.454 262.101 336.333 261.017 311.55C260.782 306.219 262.155 302 264.459 298.657C272.663 302.099 285.826 307.177 295.738 308.767L297.4 325.761Z" fill="#143C75"/>
<path d="M211.032 390.948L205.72 392.997C203.462 393.868 202.337 396.405 203.208 398.663L210.355 417.195C210.98 418.816 213.424 418.468 213.501 416.732C213.502 416.705 213.503 416.679 213.504 416.652C213.586 413.961 214.471 400.273 214.471 400.273L211.032 390.948Z" fill="#143C75"/>
<path d="M293.432 237.061C292.623 237.808 298.161 230.043 306.463 237.772C313.334 244.169 328.498 266.204 328.498 266.204L360.735 253.455L364.695 260.157C364.695 260.157 331.815 282.078 326.603 282.552C321.39 283.026 279.216 252.699 293.432 237.061Z" fill="#F74871"/>
<path d="M338.093 411.349L328.164 411.195C322.472 405.042 306.083 354.519 306.083 354.519C306.083 354.519 295.657 342.439 272.202 334.38C252.145 327.495 257.728 303.444 259.77 296.632C267.676 300.138 289.422 309.272 301.222 309.263C306.598 316.961 319.057 335.039 322.192 341.49C326.221 349.785 338.093 411.349 338.093 411.349Z" fill="#31599B"/>
<path opacity="0.34" d="M307.914 351.872C304.916 345.577 289.378 336.534 272.89 330.538C256.413 324.546 263.638 298.347 263.651 298.316C262.148 297.678 260.831 297.104 259.769 296.633C257.727 303.445 252.144 327.496 272.201 334.381C295.655 342.44 306.082 354.52 306.082 354.52C306.082 354.52 322.456 404.996 328.155 411.186C327.964 410.609 310.896 358.134 307.914 351.872Z" fill="#143C75"/>
<path d="M285.942 229.185C285.942 229.185 285.338 229.539 284.428 230.304C281.687 232.609 276.169 238.652 275.991 250.035C275.754 265.198 263.197 291.261 256.8 295.289C256.8 295.289 287.127 309.505 301.58 309.268C301.58 309.268 300.519 269.59 308.451 265.673C318.047 260.934 308.055 243.909 301.894 234.935L285.942 229.185Z" fill="#F74871"/>
<path d="M289.537 235.633C302.502 247.231 280.719 254.904 258.371 270.733C241.645 282.58 219.41 300.368 219.41 300.368L212.937 295.04C212.937 295.04 274.424 222.114 289.537 235.633Z" fill="#F74871"/>
<path d="M312.163 211.407C312.163 211.434 312.154 211.452 312.145 211.479C312.127 211.434 312.118 211.407 312.118 211.407C308.603 212.961 305.974 211.75 303.806 213.503C301.647 215.256 297.256 216.683 297.256 216.683C293.678 215.129 293.199 220.595 295.639 224.715C298.069 228.844 294.049 232.187 294.049 232.187L294.175 232.232C292.838 234.021 285.267 243.625 279.99 239.451C274.172 234.852 272.681 244.989 265.923 242.965C259.165 240.932 256.726 255.397 245.233 248.232C233.741 241.067 233.876 218.905 246.046 219.447C258.216 219.989 257.267 220.396 263.899 213.231C270.522 206.066 278.364 213.773 282.421 212.02C286.478 210.258 284.987 198.504 295.937 199.046C306.896 199.58 313.654 203.095 312.163 211.407Z" fill="#31599B"/>
<path d="M312.12 211.409C312.12 211.409 320.701 232.152 304.62 231.543L301.85 234.854L294.05 232.187C294.05 232.187 298.067 228.841 295.634 224.719C293.202 220.597 293.675 215.125 297.256 216.679C297.256 216.679 301.648 215.26 303.81 213.503C305.972 211.746 308.607 212.963 312.12 211.409Z" fill="#FFA683"/>
<path d="M360.978 253.978C360.978 253.978 368.701 250.052 369.91 253.728C371.119 257.404 364.163 259.791 364.163 259.791L360.978 253.978Z" fill="#FFA683"/>
<path d="M154.741 410.986C155.755 411.534 157.034 411.151 157.581 410.137L212.835 307.758C213.383 306.744 213 305.465 211.986 304.918C210.971 304.371 209.693 304.753 209.146 305.767L153.892 408.145C153.344 409.16 153.726 410.438 154.741 410.986Z" fill="#143C75"/>
<path d="M176.473 313.144L193.856 322.526C196.527 323.967 197.524 327.301 196.082 329.972L155.672 404.846C154.23 407.517 150.897 408.514 148.226 407.072L130.844 397.691C128.173 396.25 127.176 392.916 128.618 390.245L169.028 315.371C170.469 312.699 173.802 311.703 176.473 313.144Z" fill="#FFBF00"/>
<path d="M194.785 323.156C194.752 323.223 194.725 323.29 194.69 323.356L154.28 398.23C152.838 400.901 149.505 401.898 146.834 400.456L129.452 391.074C129.115 390.892 128.805 390.68 128.523 390.443C127.234 393.079 128.239 396.283 130.845 397.689L148.227 407.07C150.898 408.511 154.232 407.515 155.673 404.844L196.083 329.97C197.342 327.638 196.739 324.798 194.785 323.156Z" fill="#FF9700"/>
<path d="M143.843 402.722C140.544 408.835 142.825 416.464 148.938 419.763C155.051 423.062 162.68 420.781 165.979 414.668C169.278 408.555 166.997 400.926 160.885 397.627C154.772 394.329 147.142 396.61 143.843 402.722Z" fill="#143C75"/>
<path d="M150.597 406.367C149.311 408.75 150.2 411.724 152.583 413.009C154.966 414.295 157.939 413.406 159.225 411.023C160.511 408.641 159.622 405.667 157.239 404.381C154.857 403.096 151.883 403.985 150.597 406.367Z" fill="white"/>
<path d="M219.41 300.368C219.41 300.368 212.189 308.61 209.041 304.862C205.893 301.114 212.938 295.04 212.938 295.04L219.41 300.368Z" fill="#FFA683"/>
<path d="M291.018 237.111C298.106 245.084 288.582 251.359 274.51 260.191C270.967 274.754 261.916 292.067 256.8 295.289C256.8 295.289 259.498 296.552 263.652 298.315C267.995 291.969 273.183 279.706 274.955 273.347C277.174 265.382 280.826 258.331 290.097 252.192C299.368 246.061 291.097 237.05 291.097 237.05L291.018 237.111Z" fill="#CE2955"/>
<path d="M311.906 266.814C310.655 267.601 310.434 270.332 310.521 272.85C308.955 271.583 307.365 270.221 305.815 268.797C306.563 267.27 307.428 266.176 308.452 265.672C317.951 260.981 308.226 244.234 302.079 235.199C302.087 235.199 302.087 235.207 302.095 235.207C303.622 237.3 314.536 251.521 314.78 256.109C315.038 261.068 314.385 265.247 311.906 266.814Z" fill="#CE2955"/>
<path d="M328.16 411.199V416.892C328.16 419.312 330.122 421.274 332.542 421.274H352.404C354.142 421.274 354.696 418.869 353.104 418.172C353.08 418.161 353.055 418.151 353.03 418.14C350.549 417.096 338.096 411.344 338.096 411.344L328.16 411.199Z" fill="#143C75"/>
<path d="M311.98 206.641C310.48 201.714 304.502 199.464 295.936 199.047C284.986 198.505 286.476 210.259 282.42 212.021C278.363 213.774 270.521 206.067 263.898 213.232C257.266 220.397 258.215 219.99 246.045 219.448C238.163 219.097 235.336 228.267 237.439 236.721C240.044 229.123 249.448 225.755 257.202 226.616C267.994 227.815 263.997 224.018 265.796 218.023C267.595 212.027 269.393 212.427 278.386 217.423C287.379 222.419 287.382 210.186 293.774 203.633C300.672 196.564 309.645 204.365 311.98 206.641Z" fill="#143C75"/>
<path d="M387.404 376.5C387.023 379.436 386.755 382.15 386.597 384.474H387.711C387.861 382.609 388.174 380.275 388.773 377.338C390.9 366.899 394.702 357.15 394.41 345.419C394.117 333.687 385.989 302.951 386.136 301.014C386.283 299.077 379.559 334.263 383.853 349.21C388.145 364.157 388.358 369.142 387.404 376.5Z" fill="#65BCFC"/>
<path d="M389.043 369.327C388.25 372.65 387.241 379.664 387.02 384.474H387.707C387.857 382.614 388.174 380.272 388.772 377.338C390.899 366.899 394.701 357.15 394.408 345.419C394.115 333.687 385.987 302.951 386.134 301.014C386.134 301.014 385.472 325.459 389.415 342.973C392.238 355.513 390.149 364.695 389.043 369.327Z" fill="#31599B"/>
<path d="M384.285 384.474H385.638C386.347 378.483 386.892 367.249 383.011 357.228C377.392 342.721 368.343 324.147 368.258 316.687C368.258 316.687 365.393 352.208 372.828 362.02C379.512 370.84 384.457 372.905 384.285 384.474Z" fill="#31599B"/>
<path d="M384.282 384.474H385.059C385.8 377.265 384.525 365.216 377.259 354.765C368.981 342.857 368.257 316.687 368.257 316.687C368.257 316.687 365.392 352.208 372.827 362.02C379.51 370.839 384.452 372.909 384.282 384.474Z" fill="#65BCFC"/>
<path d="M401.612 341.238C393.119 349.365 396.778 373.482 393.045 378.356C390.952 381.088 388.779 383.171 387.272 384.474H390.821C392.592 383.425 394.552 382.096 396.459 380.451C402.166 375.526 402.627 365.731 406.264 354.422C408.069 348.81 423.896 336.753 427.251 336.937C424.867 336.464 409.436 333.75 401.612 341.238Z" fill="#65BCFC"/>
<path d="M420.967 336.161C410.044 338.338 400.398 350.129 398.709 368.443C397.872 377.521 392.171 382.311 388.532 384.474H390.809C392.585 383.424 394.545 382.102 396.458 380.451C402.165 375.526 402.626 365.731 406.263 354.422C408.068 348.81 423.895 336.753 427.25 336.937C426.427 336.774 424.054 336.347 420.967 336.161Z" fill="#31599B"/>
<path d="M427.25 336.938C427.453 336.978 427.573 337.005 427.573 337.005C427.485 336.963 427.373 336.945 427.25 336.938Z" fill="#49B4D6"/>
<path d="M370.672 375.302C371.789 380.046 375.486 382.881 378.589 384.475H382.739C374.183 356.727 355.714 357.482 355.714 357.482C357.747 357.789 368.642 366.673 370.672 375.302Z" fill="#65BCFC"/>
<path d="M374.118 375.396C376.618 380.533 379.614 382.435 382.244 382.923C373.491 356.751 355.715 357.48 355.715 357.48C356.117 357.541 356.873 357.947 357.83 358.61C361.647 360.824 369.703 366.323 374.118 375.396Z" fill="#31599B"/>
<path d="M376.299 382.338C370.258 388.293 364.491 407.466 380.241 421.275H391.426C407.175 407.466 401.408 388.292 395.368 382.338H376.299Z" fill="#FFBF00"/>
<path d="M398.491 386.762C397.542 384.93 396.46 383.415 395.367 382.338H376.299C375.206 383.415 374.124 384.93 373.175 386.762H398.491Z" fill="#FF9700"/>
<path d="M395.367 382.338H388.713C394.754 388.293 400.521 407.466 384.771 421.275H391.425C407.175 407.466 401.408 388.293 395.367 382.338Z" fill="#FF9700"/>
</g>
<defs>
<linearGradient id="paint0_linear_3_35" x1="17.142" y1="372.828" x2="471.918" y2="-81.9476" gradientUnits="userSpaceOnUse">
<stop stop-color="white" stop-opacity="0"/>
<stop offset="1" stop-color="white"/>
</linearGradient>
<linearGradient id="paint1_linear_3_35" x1="103.647" y1="459.333" x2="558.421" y2="4.55879" gradientUnits="userSpaceOnUse">
<stop stop-color="white" stop-opacity="0"/>
<stop offset="1" stop-color="white"/>
</linearGradient>
<clipPath id="clip0_3_35">
<rect width="500" height="500" fill="white"/>
</clipPath>
</defs>
</svg>
